<svg id="Layer_1" data-name="Layer 1" xmlns="http://www.w3.org/2000/svg" viewBox="0 0 464.57 489.74"><defs><style>.cls-1{fill:#231f20;}</style></defs><path class="cls-1" d="M154.7,224.37c0,9.3-7,16.61-17.41,16.61s-17.41-7.31-17.41-16.61v-25h10.68v24.09c0,4.57,2.57,7.48,6.73,7.48s6.74-2.91,6.74-7.48V199.42H154.7Z"/><path class="cls-1" d="M172.51,240.29H162V199.48H178c8.39,0,14.61,6,14.61,14.27s-6.22,14.33-14.61,14.33h-5.49Zm4.06-21.35a5.17,5.17,0,0,0,0-10.33h-4.06v10.33Z"/><path class="cls-1" d="M205.17,208.9H194.26v-9.42h32.43v9.42H215.84v31.39H205.17Z"/><path class="cls-1" d="M265.73,224.37c0,9.3-7,16.61-17.41,16.61s-17.41-7.31-17.41-16.61v-25h10.68v24.09c0,4.57,2.57,7.48,6.73,7.48s6.74-2.91,6.74-7.48V199.42h10.67Z"/><path class="cls-1" d="M273,199.48h17.29c8.73,0,14.56,5.76,14.56,13.53a12.34,12.34,0,0,1-8,11.41l10.5,15.87H295.42L287,226.59h-3.31v13.7H273Zm16,18.32a4.68,4.68,0,1,0,0-9.36h-5.37v9.36Z"/><path class="cls-1" d="M347.82,199.42v40.87h-8.73l-16.55-22.66v22.66H311.92V199.42h8.79l16.55,22.66V199.42Z"/><path class="cls-1" d="M161.33,304.26c-2.74,1.94-6.45,2.91-10.91,2.91-12,0-21-8.79-21-20.78,0-12.38,9.25-21.46,21.58-21.46a20,20,0,0,1,9.93,2.34v10.39a15.23,15.23,0,0,0-9-2.85c-6.85,0-11.53,4.51-11.53,11.24s4.62,11.08,11.18,11.08a16.37,16.37,0,0,0,9.71-3.26Z"/><path class="cls-1" d="M207.74,286.05c0,11.7-8.79,21.12-21.46,21.12s-21.41-9.42-21.41-21.12,8.73-21.12,21.46-21.12S207.74,274.35,207.74,286.05Zm-31.91,0c0,6.28,4.11,11.19,10.5,11.19s10.45-4.91,10.45-11.19-4.11-11.19-10.45-11.19S175.83,279.77,175.83,286.05Z"/><path class="cls-1" d="M213.45,265.67h26.49v9.14H224v7.82h12.73v9H224v14.84H213.45Z"/><path class="cls-1" d="M245.07,265.67h26.49v9.14H255.63v7.82h12.73v9H255.63v14.84H245.07Z"/><path class="cls-1" d="M276.7,265.67h26.94v9.14H287.26v6.68H300.5v8.9H287.26v7h17.3v9.13H276.7Z"/><path class="cls-1" d="M310.44,265.67h26.94v9.14H321v6.68h13.24v8.9H321v7h17.29v9.13H310.44Z"/></svg>